The Searchers 1956 BluRay 1080p Multi ac3 x264-LoNeWolf

Movie has been tested and is DXVA Compliant

General Information:

RUNTIME........: 1h 58mn
SIZE...........: 8 GiB
VIDEO CODEC....: x264 (L4.1)
RESOLUTION.....: 1920x1072
BITRATE........: Overall bit rate : 9 636 Kbps 
FRAMERATE......: 23.976 fps
AUDIO 1........: English AC-3 192kbps 1 Channel
AUDIO 2........: French AC-3 192kbps 1 Channel
AUDIO 3........: Spanish AC-3 192kbps 1 Channel
SUBTITLES......: English / Spanish / French 
CHAPTERS.......: YES
SOURCE.........: NTSC Blu-ray 
ENCODED DATE...: UTC 2011-02-12 23:52:15  
Encoder........: TequilaBob a.k.a. LoNeWoLf
GENRE..........: Adventure, Drama, Western  
RATING.........:  8.1/10 X  Users: 8.1/10 (30,988 votes) 370 reviews | Critics: 95 reviews 
Release Date...: Release Date:13 March 1956 (USA) 
Rated..........: Not Rated  
IMDB link......: http://www.imdb.com/title/tt0049730/


 Storyline
Ethan Edwards, returned from the Civil War to the Texas ranch of his brother, hopes to find a home with his family and to be near the woman he obviously but secretly loves. But a Comanche raid destroys these plans, and Ethan sets out, along with his 1/8 Indian nephew Martin, on a years-long journey to find the niece kidnapped by the Indians under Chief Scar. But as the quest goes on, Martin begins to realize that his uncle's hatred for the Indians is beginning to spill over onto his now-assimilated niece. Martin becomes uncertain whether Ethan plans to rescue Debbie...or kill her. Written by Jim Beaver <jumblejim@prodigy.net> 


Director: John Ford
Writers: Frank S. Nugent (screenplay), Alan Le May (novel)
Stars:John Wayne, Jeffrey Hunter and Vera Miles  

Cast
Cast overview, first billed only: 
  John Wayne  ...  Ethan Edwards  
  Jeffrey Hunter  ...  Martin Pawley  
  Vera Miles  ...  Laurie Jorgensen  
  Ward Bond  ...  Rev. Capt. Samuel Johnston Clayton  
  Natalie Wood  ...  Debbie Edwards - age 15  
  John Qualen  ...  Lars Jorgensen  
  Olive Carey  ...  Mrs. Jorgensen  
  Henry Brandon  ...  Chief Cicatriz - Scar  
  Ken Curtis  ...  Charlie McCorry  
  Harry Carey Jr.  ...  Brad Jorgensen  
  Antonio Moreno  ...  Emilio Gabriel Fernandez y Figueroa  
  Hank Worden  ...  Mose Harper  
  Beulah Archuletta  ...  Wild Goose Flying in the Night Sky (Look)  
  Walter Coy  ...  Aaron Edwards  
  Dorothy Jordan  ...  Martha Edwards  



Format : Matroska 
File size : 8.00 GiB 
Duration : 1h 58mn 
Overall bit rate : 9 636 Kbps 
Encoded date : UTC 2011-02-12 23:52:15 
Writing application : mkvmerge v4.4.0 ('Die Wiederkehr') built on Oct 31 2010 21:52:48 
Writing library : libebml v1.0.0 + libmatroska v1.0.0 

Video 
ID : 1 
Format : AVC 
Format/Info : Advanced Video Codec 
Format profile : High@L4.1 
Format settings, CABAC : Yes 
Format settings, ReFrames : 3 frames 
Format settings, GOP : M=7, N=49 
Muxing mode : Container profile=Unknown@4.1 
Codec ID : V_MPEG4/ISO/AVC 
Duration : 1h 58mn 
Bit rate : 9 004 Kbps 
Width : 1 920 pixels 
Height : 1 072 pixels 
Display aspect ratio : 16:9 
Frame rate : 23.976 fps 
Color space : YUV 
Chroma subsampling : 4:2:0 
Bit depth : 8 bits 
Scan type : Progressive 
Bits/(Pixel*Frame) : 0.182 
Stream size : 7.36 GiB (92%) 
Writing library : x264 core 112 r1867 22bfd31 
Encoding settings : cabac=1 / ref=4 / deblock=1:-3:-3 / analyse=0x3:0x113 / me=umh / subme=10 / psy=1 / psy_rd=1.00:0.08 / mixed_ref=1 / me_range=32 / chroma_me=1 / trellis=2 / 8x8dct=1 / cqm=0 / deadzone=21,11 / fast_pskip=0 / chroma_qp_offset=-3 / threads=6 / sliced_threads=0 / nr=0 / decimate=1 / interlaced=0 / constrained_intra=0 / bframes=6 / b_pyramid=1 / b_adapt=1 / b_bias=0 / direct=1 / weightb=1 / open_gop=2 / weightp=2 / keyint=250 / keyint_min=23 / scenecut=40 / intra_refresh=0 / rc_lookahead=100 / rc=2pass / mbtree=1 / bitrate=9004 / ratetol=1.0 / qcomp=0.60 / qpmin=10 / qpmax=51 / qpstep=4 / cplxblur=20.0 / qblur=0.5 / vbv_maxrate=50000 / vbv_bufsize=50000 / nal_hrd=none / ip_ratio=1.40 / aq=1:1.50 
Language : English 

Audio #1 
ID : 2 
Format : AC-3 
Format/Info : Audio Coding 3 
Mode extension : CM (complete main) 
Codec ID : A_AC3 
Duration : 1h 58mn 
Bit rate mode : Constant 
Bit rate : 192 Kbps 
Channel(s) : 1 channel 
Channel positions : Front: C 
Sampling rate : 48.0 KHz 
Bit depth : 16 bits 
Stream size : 163 MiB (2%) 
Title : 1/0 
Language : English 

Audio #2 
ID : 3 
Format : AC-3 
Format/Info : Audio Coding 3 
Mode extension : CM (complete main) 
Codec ID : A_AC3 
Duration : 1h 58mn 
Bit rate mode : Constant 
Bit rate : 192 Kbps 
Channel(s) : 1 channel 
Channel positions : Front: C 
Sampling rate : 48.0 KHz 
Bit depth : 16 bits 
Stream size : 163 MiB (2%) 
Title : 1/0 
Language : French 

Audio #3 
ID : 4 
Format : AC-3 
Format/Info : Audio Coding 3 
Mode extension : CM (complete main) 
Codec ID : A_AC3 
Duration : 1h 58mn 
Bit rate mode : Constant 
Bit rate : 192 Kbps 
Channel(s) : 1 channel 
Channel positions : Front: C 
Sampling rate : 48.0 KHz 
Bit depth : 16 bits 
Stream size : 163 MiB (2%) 
Title : 1/0 
Language : Spanish 

Text 
ID : 5 
Format : PGS 
Codec ID : S_HDMV/PGS 
Codec ID/Info : The same subtitle format used on BDs/HD-DVDs 
Language : English French Spanish



Menu & 43 Chapters


See all 20 full size 1920x1072 PNG files at the link below
 
http://s1015.photobucket.com/albums/af279/tequila-bob/The%20Searchers%201956/

 
http://www.imagebam.com/image/632c13119359893 
http://www.imagebam.com/image/d96fe9119359966 
http://www.imagebam.com/image/a23f1f119360063 
http://www.imagebam.com/image/0962b0119360139 
http://www.imagebam.com/image/95a6d5119360266 
http://www.imagebam.com/image/d34943119360358
